<svg width="561" height="761" viewBox="0 0 561 761" fill="none" xmlns="http://www.w3.org/2000/svg">
<path fill-rule="evenodd" clip-rule="evenodd" d="M390.997 1.3489C357.989 6.55388 326.474 18.1742 295.676 36.4955C287.28 41.4881 234.963 71.819 179.418 103.894C69.0611 167.62 1.40324 206.875 0.0551063 207.96C-0.419323 208.342 2.22292 209.277 5.92676 210.037C31.9217 215.364 55.3895 222.072 72.4079 229.035C115.067 246.495 163.646 281.955 195.466 318.862C212.787 338.948 239.308 377.195 239.308 382.082C239.308 383.736 236.537 386.357 233.15 387.907C229.763 389.457 212.773 399.712 195.398 410.697C115.464 461.228 68.7158 507.617 51.8478 553.148C44.1371 573.965 43.7167 611.759 50.8989 638.468C60.7092 674.941 84.379 713.443 109.777 734.237C123.846 745.756 151.238 760.601 153.756 758.072C154.58 757.244 154.033 747.742 152.542 736.957C151.048 726.174 149.23 699.831 148.502 678.419C144.918 573.231 172.637 498.304 238.402 435.394C275.839 399.584 313.359 373.904 406.836 320.11C468.291 284.747 485.852 272.744 506.501 252C531.245 227.143 551.866 190.448 558.465 159.532C562.277 141.673 561.702 108.07 557.329 93.1109C547.136 58.2545 525.434 32.9233 491.789 16.6146C480.163 10.9802 464.944 5.19483 457.969 3.76028C439.623 -0.0148679 407.066 -1.18753 390.997 1.3489ZM351.978 81.5542C426.013 121.382 451.515 245.917 395.75 295.308C384.232 305.508 312.934 345.734 306.37 345.734C304.78 345.734 302.363 343.28 301.005 340.284C299.646 337.285 285.882 314.193 270.419 288.965C223.673 212.698 214.976 192.039 214.854 156.977C214.788 138.41 215.65 132.894 219.883 124.85C230.473 104.717 249.032 89.1092 275.847 77.7814C288.182 72.5694 292.536 71.97 313.291 72.6307C334.88 73.3173 338.006 74.0393 351.978 81.5542ZM323.224 380.251C322.406 381.581 309.125 391.326 293.71 401.906C278.294 412.486 265.057 422.778 264.293 424.779C263.528 426.779 265.47 436.623 268.608 446.653C280.271 483.94 286.181 520.606 286.239 556.083C286.286 583.946 279.823 626.89 272.3 648.706C269.655 656.37 267.492 662.995 267.492 663.429C267.492 664.55 290.136 674.837 363.787 707.171C399.311 722.765 441.354 741.258 457.217 748.264C473.08 755.269 486.477 761 486.986 761C487.757 761 410.357 625.352 399.755 608.118C397.923 605.141 393.9 601.741 390.818 600.563C373.22 593.844 380.775 567.524 400.304 567.524C411.618 567.524 421.005 577.356 419.415 587.537C418.49 593.469 425.388 607.068 460.724 668.981C484.053 709.859 504.322 744.628 505.762 746.244C507.77 748.5 508.5 747.676 508.892 742.705C509.886 730.15 532.886 521.432 533.967 515.174C535.012 509.125 534.448 508.719 521.646 506.279C452.611 493.128 382.882 449.697 334.164 389.507C328.966 383.084 324.043 378.92 323.224 380.251Z" fill="#023430"/>
</svg>
