<svg width="428" height="138" viewBox="0 0 428 138" fill="none" xmlns="http://www.w3.org/2000/svg">
<path d="M414.97 112.6C413.732 111.923 412.801 110.937 412.057 109.766C411.375 108.535 411 107.241 411 105.824C411 104.407 411.375 103.052 412.057 101.881C412.738 100.649 413.732 99.725 414.97 99.0471C416.214 98.3699 417.577 98 419.128 98C420.679 98 422.042 98.3699 423.286 99.0471C424.524 99.725 425.455 100.711 426.199 101.881C426.881 103.113 427.256 104.407 427.256 105.824C427.256 107.241 426.881 108.596 426.199 109.766C425.518 110.999 424.524 111.923 423.286 112.6C422.042 113.278 420.679 113.647 419.128 113.647C417.64 113.647 416.214 113.278 414.97 112.6ZM422.604 111.676C423.655 111.122 424.405 110.259 425.024 109.274C425.58 108.227 425.893 107.056 425.893 105.762C425.893 104.469 425.58 103.298 425.024 102.25C424.461 101.203 423.655 100.403 422.604 99.8483C421.548 99.2937 420.428 98.9858 419.128 98.9858C417.827 98.9858 416.708 99.2937 415.652 99.8483C414.601 100.403 413.851 101.265 413.232 102.25C412.676 103.298 412.363 104.469 412.363 105.762C412.363 107.056 412.676 108.227 413.232 109.274C413.795 110.321 414.601 111.122 415.652 111.676C416.708 112.23 417.827 112.538 419.128 112.538C420.428 112.538 421.61 112.292 422.604 111.676ZM415.777 109.52V108.966L415.902 108.904H416.277C416.396 108.904 416.521 108.842 416.583 108.78C416.708 108.658 416.708 108.596 416.708 108.473V102.744C416.708 102.62 416.646 102.497 416.583 102.436C416.458 102.312 416.396 102.312 416.277 102.312H415.902L415.777 102.25V101.697L415.902 101.635H419.128C420.06 101.635 420.741 101.819 421.297 102.25C421.86 102.682 422.104 103.236 422.104 103.975C422.104 104.53 421.923 105.085 421.485 105.454C421.054 105.885 420.553 106.132 419.935 106.194L420.678 106.44L422.104 108.719C422.229 108.904 422.354 108.966 422.542 108.966H422.911L422.973 109.027V109.582L422.911 109.643H420.991L420.866 109.582L418.878 106.255H418.384V108.473C418.384 108.596 418.446 108.719 418.509 108.78C418.634 108.904 418.697 108.904 418.815 108.904H419.19L419.316 108.966V109.52L419.19 109.582H415.902L415.777 109.52ZM418.94 105.516C419.441 105.516 419.872 105.392 420.122 105.085C420.366 104.838 420.553 104.407 420.553 103.914C420.553 103.421 420.428 103.052 420.185 102.744C419.934 102.436 419.559 102.312 419.128 102.312H418.878C418.753 102.312 418.634 102.374 418.572 102.436C418.446 102.558 418.446 102.62 418.446 102.744V105.516H418.94Z" fill="white"/>
<path d="M137.196 88.238C137.196 91.4633 137.275 94.02 137.432 95.908C137.589 97.796 137.983 99.2513 138.612 100.274C139.32 101.218 140.303 101.847 141.562 102.162C142.821 102.477 144.591 102.713 146.872 102.87V107H115.484V102.87C117.765 102.791 119.575 102.595 120.912 102.28C122.249 101.887 123.272 101.218 123.98 100.274C124.688 99.33 125.121 97.9927 125.278 96.262C125.514 94.4527 125.632 92.0533 125.632 89.064V75.258C125.632 69.9087 125.553 65.7393 125.396 62.75C125.317 59.7607 124.924 57.558 124.216 56.142C123.587 54.726 122.564 53.9 121.148 53.664C119.732 53.3493 117.765 53.192 115.248 53.192V49.062L135.898 44.578L137.55 59.21H138.022C139.045 56.85 140.303 54.6867 141.798 52.72C143.371 50.7533 145.063 49.1013 146.872 47.764C148.681 46.348 150.569 45.2467 152.536 44.46C154.503 43.6733 156.509 43.28 158.554 43.28C161.071 43.28 163.038 43.9093 164.454 45.168C165.949 46.348 166.696 47.9607 166.696 50.006C166.696 51.894 166.106 53.3887 164.926 54.49C163.746 55.5127 162.055 56.024 159.852 56.024C158.593 56.024 157.531 55.8667 156.666 55.552C155.801 55.2373 155.014 54.9227 154.306 54.608C153.677 54.2147 153.047 53.8607 152.418 53.546C151.867 53.2313 151.238 53.074 150.53 53.074C148.406 53.074 146.282 54.4507 144.158 57.204C142.034 59.8787 140.382 63.3007 139.202 67.47C138.573 69.7513 138.061 72.3473 137.668 75.258C137.353 78.09 137.196 81.0793 137.196 84.226V88.238Z" fill="white"/>
<path d="M227.563 96.026C220.876 104.129 212.577 108.18 202.665 108.18C198.023 108.18 193.815 107.433 190.039 105.938C186.263 104.365 182.998 102.201 180.245 99.448C177.57 96.616 175.485 93.2727 173.991 89.418C172.496 85.4847 171.749 81.158 171.749 76.438C171.749 71.6393 172.535 67.1947 174.109 63.104C175.682 59.0133 177.885 55.5127 180.717 52.602C183.627 49.6913 187.049 47.41 190.983 45.758C194.995 44.106 199.361 43.28 204.081 43.28C211.711 43.28 217.611 45.3647 221.781 49.534C225.95 53.6247 228.035 59.5247 228.035 67.234C228.035 68.3353 227.799 69.004 227.327 69.24C226.933 69.476 225.95 69.594 224.377 69.594H185.555C185.397 70.2233 185.279 71.01 185.201 71.954C185.122 72.8193 185.083 73.8027 185.083 74.904C185.083 78.9947 185.555 82.7313 186.499 86.114C187.521 89.418 188.937 92.25 190.747 94.61C192.635 96.97 194.837 98.8187 197.355 100.156C199.951 101.415 202.822 102.044 205.969 102.044C209.273 102.044 212.341 101.336 215.173 99.92C218.005 98.4253 220.915 96.026 223.905 92.722L227.563 96.026ZM208.093 64.166C209.666 64.166 210.925 64.1267 211.869 64.048C212.813 63.9693 213.521 63.812 213.993 63.576C214.465 63.34 214.779 63.0253 214.937 62.632C215.094 62.16 215.173 61.57 215.173 60.862C215.173 57.2433 213.993 54.372 211.633 52.248C209.351 50.0453 206.205 48.944 202.193 48.944C193.697 48.944 188.426 54.018 186.381 64.166H208.093Z" fill="white"/>
<path d="M243.757 107H241.161V86.704H244.111C247.179 97.796 252.765 103.342 260.867 103.342C264.014 103.342 266.492 102.595 268.301 101.1C270.189 99.5267 271.133 97.1667 271.133 94.02C271.133 92.84 270.937 91.8567 270.543 91.07C270.229 90.2047 269.56 89.3393 268.537 88.474C267.593 87.53 266.217 86.468 264.407 85.288C262.677 84.108 260.356 82.6133 257.445 80.804C254.771 79.152 252.45 77.618 250.483 76.202C248.517 74.786 246.865 73.37 245.527 71.954C244.19 70.4593 243.167 68.886 242.459 67.234C241.83 65.582 241.515 63.6547 241.515 61.452C241.515 58.7773 241.948 56.3387 242.813 54.136C243.757 51.8547 245.016 49.9273 246.589 48.354C248.163 46.7807 250.011 45.5613 252.135 44.696C254.259 43.752 256.58 43.28 259.097 43.28C261.221 43.28 263.424 43.634 265.705 44.342C267.987 44.9713 269.993 45.8367 271.723 46.938L274.083 44.46H276.325V61.452H273.257C271.527 56.6533 269.639 53.2313 267.593 51.186C265.548 49.1407 263.031 48.118 260.041 48.118C257.367 48.118 255.203 48.826 253.551 50.242C251.978 51.658 251.191 53.6247 251.191 56.142C251.191 57.4793 251.388 58.6593 251.781 59.682C252.253 60.626 252.961 61.57 253.905 62.514C254.849 63.458 256.029 64.4413 257.445 65.464C258.94 66.408 260.71 67.5093 262.755 68.768C266.138 70.892 269.009 72.78 271.369 74.432C273.808 76.084 275.775 77.736 277.269 79.388C278.764 80.9613 279.865 82.6133 280.573 84.344C281.281 86.0747 281.635 88.0413 281.635 90.244C281.635 95.8293 279.826 100.235 276.207 103.46C272.589 106.607 267.829 108.18 261.929 108.18C255.793 108.18 250.523 106.41 246.117 102.87L243.757 107Z" fill="white"/>
<path d="M291.913 51.894V47.528C296.083 45.0893 299.347 42.6507 301.707 40.212C304.067 37.7733 305.877 34.8627 307.135 31.48H310.557V46.348H326.369V51.894H310.557V87.766C310.557 90.5193 310.675 92.84 310.911 94.728C311.226 96.616 311.698 98.15 312.327 99.33C312.957 100.431 313.783 101.218 314.805 101.69C315.828 102.162 317.126 102.398 318.699 102.398C320.666 102.398 322.318 102.005 323.655 101.218C325.071 100.353 326.448 98.9367 327.785 96.97L330.735 99.212C329.634 102.123 327.707 104.365 324.953 105.938C322.279 107.433 318.935 108.18 314.923 108.18C309.731 108.18 305.759 106.961 303.005 104.522C300.331 102.005 298.993 98.4253 298.993 93.784V51.894H291.913Z" fill="white"/>
<path d="M370.139 43.28C374.623 43.28 378.871 44.106 382.883 45.758C386.895 47.3313 390.396 49.534 393.385 52.366C396.453 55.198 398.852 58.5807 400.583 62.514C402.392 66.3687 403.297 70.6167 403.297 75.258C403.297 80.0567 402.392 84.462 400.583 88.474C398.852 92.486 396.453 95.9473 393.385 98.858C390.396 101.769 386.895 104.05 382.883 105.702C378.871 107.354 374.623 108.18 370.139 108.18C365.734 108.18 361.525 107.393 357.513 105.82C353.58 104.168 350.118 101.887 347.129 98.976C344.14 96.0653 341.78 92.604 340.049 88.592C338.318 84.5013 337.453 80.0567 337.453 75.258C337.453 70.6167 338.318 66.3293 340.049 62.396C341.78 58.4627 344.14 55.08 347.129 52.248C350.118 49.416 353.58 47.2133 357.513 45.64C361.525 44.0667 365.734 43.28 370.139 43.28ZM370.139 48.944C367.228 48.944 364.554 49.5733 362.115 50.832C359.755 52.0907 357.71 53.9 355.979 56.26C354.327 58.5413 353.029 61.334 352.085 64.638C351.22 67.8633 350.787 71.4427 350.787 75.376C350.787 79.4667 351.22 83.164 352.085 86.468C353.029 89.772 354.327 92.604 355.979 94.964C357.71 97.2453 359.755 99.0153 362.115 100.274C364.475 101.533 367.15 102.162 370.139 102.162C373.128 102.162 375.842 101.533 378.281 100.274C380.72 99.0153 382.804 97.206 384.535 94.846C386.266 92.486 387.603 89.654 388.547 86.35C389.491 83.046 389.963 79.388 389.963 75.376C389.963 71.4427 389.491 67.8633 388.547 64.638C387.603 61.4127 386.266 58.6593 384.535 56.378C382.804 54.018 380.72 52.2087 378.281 50.95C375.842 49.6127 373.128 48.944 370.139 48.944Z" fill="white"/>
<path fill-rule="evenodd" clip-rule="evenodd" d="M71.0903 0.244609C65.0888 1.18848 59.3589 3.29572 53.7593 6.6181C52.2327 7.52347 42.7206 13.0237 32.6214 18.8401C12.5566 30.3963 0.255134 37.5148 0.0100193 37.7116C-0.0762405 37.7809 0.404167 37.9503 1.07759 38.0881C5.80395 39.0542 10.0708 40.2706 13.1651 41.5333C20.9212 44.6995 29.7539 51.1299 35.5393 57.8226C38.6886 61.465 43.5106 68.4007 43.5106 69.2868C43.5106 69.5868 43.0067 70.0621 42.3909 70.3432C41.7752 70.6243 38.686 72.4838 35.5269 74.476C20.9934 83.6392 12.4938 92.0514 9.42687 100.308C8.02493 104.083 7.94849 110.937 9.25434 115.78C11.038 122.394 15.3416 129.376 19.9595 133.147C22.5174 135.236 27.4979 137.928 27.9557 137.469C28.1055 137.319 28.006 135.596 27.7349 133.64C27.4633 131.685 27.1328 126.908 27.0004 123.025C26.3487 103.95 31.3885 90.3627 43.3458 78.9545C50.1526 72.4607 56.9744 67.8038 73.9702 58.0489C85.1438 51.6361 88.3367 49.4595 92.0912 45.6977C96.5899 41.1901 100.339 34.5359 101.539 28.9296C102.232 25.6911 102.128 19.5974 101.332 16.8848C99.4792 10.5639 95.5334 5.97032 89.4163 3.0129C87.3025 1.99116 84.5353 0.942033 83.267 0.68189C79.9315 -0.00269616 74.012 -0.215347 71.0903 0.244609ZM63.9961 14.7891C77.4569 22.0114 82.0936 44.5947 71.9546 53.5512C69.8605 55.4008 56.8971 62.6955 55.7036 62.6955C55.4145 62.6955 54.9751 62.2506 54.7283 61.7072C54.481 61.1634 51.9786 56.9758 49.167 52.4011C40.6679 38.5707 39.0866 34.8243 39.0644 28.4662C39.0524 25.0994 39.2092 24.099 39.9787 22.6404C41.9041 18.9894 45.2785 16.1591 50.1539 14.1049C52.3967 13.1598 53.1884 13.0511 56.962 13.1709C60.8873 13.2954 61.4557 13.4263 63.9961 14.7891ZM58.7679 68.9548C58.6193 69.1961 56.2045 70.9632 53.4019 72.8818C50.5989 74.8003 48.1921 76.6667 48.0534 77.0295C47.9141 77.3923 48.2673 79.1774 48.8378 80.9962C50.9584 87.7578 52.0328 94.4069 52.0435 100.84C52.0521 105.893 50.8769 113.681 49.5091 117.637C49.0283 119.026 48.635 120.228 48.635 120.306C48.635 120.51 52.752 122.375 66.1432 128.239C72.602 131.066 80.2462 134.42 83.1304 135.69C86.0145 136.961 88.4503 138 88.543 138C88.683 138 74.6103 113.402 72.6827 110.276C72.3496 109.736 71.6181 109.12 71.0578 108.906C67.8581 107.688 69.2319 102.915 72.7826 102.915C74.8396 102.915 76.5464 104.698 76.2573 106.544C76.0891 107.62 77.3433 110.086 83.7679 121.313C88.0096 128.726 91.6949 135.031 91.9566 135.324C92.3218 135.733 92.4546 135.584 92.5259 134.682C92.7065 132.406 96.8884 94.5566 97.0848 93.4219C97.2749 92.3248 97.1724 92.2513 94.8446 91.8088C82.293 89.4239 69.6149 81.5482 60.757 70.6333C59.812 69.4687 58.917 68.7135 58.7679 68.9548Z" fill="white"/>
</svg>
