<svg width="560" height="168" viewBox="0 0 560 168" fill="none" xmlns="http://www.w3.org/2000/svg">
<path d="M546.97 135.6C545.732 134.922 544.801 133.937 544.057 132.766C543.375 131.535 543 130.241 543 128.824C543 127.407 543.375 126.052 544.057 124.881C544.738 123.649 545.732 122.725 546.97 122.047C548.214 121.37 549.577 121 551.128 121C552.678 121 554.042 121.37 555.286 122.047C556.524 122.725 557.455 123.711 558.199 124.881C558.881 126.113 559.256 127.407 559.256 128.824C559.256 130.241 558.881 131.596 558.199 132.766C557.518 133.999 556.524 134.922 555.286 135.6C554.042 136.278 552.678 136.647 551.128 136.647C549.64 136.647 548.214 136.278 546.97 135.6ZM554.604 134.676C555.655 134.122 556.405 133.259 557.024 132.274C557.58 131.227 557.893 130.056 557.893 128.762C557.893 127.469 557.58 126.298 557.024 125.25C556.461 124.203 555.655 123.403 554.604 122.848C553.548 122.294 552.428 121.986 551.128 121.986C549.827 121.986 548.708 122.294 547.652 122.848C546.601 123.403 545.851 124.265 545.232 125.25C544.676 126.298 544.363 127.469 544.363 128.762C544.363 130.056 544.676 131.227 545.232 132.274C545.795 133.321 546.601 134.122 547.652 134.676C548.708 135.23 549.827 135.538 551.128 135.538C552.428 135.538 553.61 135.292 554.604 134.676ZM547.777 132.52V131.966L547.902 131.904H548.277C548.396 131.904 548.521 131.842 548.583 131.78C548.708 131.658 548.708 131.596 548.708 131.473V125.744C548.708 125.62 548.646 125.497 548.583 125.436C548.458 125.312 548.396 125.312 548.277 125.312H547.902L547.777 125.25V124.697L547.902 124.635H551.128C552.06 124.635 552.741 124.819 553.297 125.25C553.86 125.682 554.104 126.236 554.104 126.975C554.104 127.53 553.923 128.085 553.485 128.454C553.054 128.885 552.553 129.132 551.935 129.194L552.679 129.44L554.104 131.719C554.229 131.904 554.354 131.966 554.542 131.966H554.911L554.973 132.027V132.582L554.911 132.643H552.991L552.866 132.582L550.878 129.255H550.384V131.473C550.384 131.596 550.446 131.719 550.509 131.78C550.634 131.904 550.697 131.904 550.815 131.904H551.19L551.316 131.966V132.52L551.19 132.582H547.902L547.777 132.52ZM550.94 128.516C551.441 128.516 551.872 128.392 552.122 128.085C552.366 127.838 552.553 127.407 552.553 126.914C552.553 126.421 552.428 126.052 552.185 125.744C551.934 125.436 551.559 125.312 551.128 125.312H550.878C550.753 125.312 550.634 125.374 550.571 125.436C550.446 125.558 550.446 125.62 550.446 125.744V128.516H550.94Z" fill="white"/>
<path d="M240.644 60.914C240.644 65.0833 239.975 68.82 238.638 72.124C237.301 75.428 235.177 78.2207 232.266 80.502C229.434 82.7833 225.697 84.5533 221.056 85.812C216.493 87.0707 210.908 87.7 204.3 87.7H193.68V110.474C193.68 113.385 193.837 115.784 194.152 117.672C194.545 119.481 195.293 120.897 196.394 121.92C197.574 122.943 199.226 123.651 201.35 124.044C203.553 124.359 206.424 124.516 209.964 124.516V129H168.31V124.516C171.063 124.437 173.266 124.201 174.918 123.808C176.649 123.415 177.986 122.746 178.93 121.802C179.874 120.858 180.503 119.521 180.818 117.79C181.133 116.059 181.29 113.817 181.29 111.064V56.076C181.29 53.3227 181.133 51.12 180.818 49.468C180.582 47.7373 180.031 46.4 179.166 45.456C178.379 44.4333 177.199 43.7647 175.626 43.45C174.053 43.0567 172.007 42.7813 169.49 42.624V38.14H206.542C217.398 38.14 225.776 40.146 231.676 44.158C237.655 48.17 240.644 53.7553 240.644 60.914ZM193.68 81.8H202.058C209.925 81.8 215.746 80.3053 219.522 77.316C223.377 74.248 225.304 69.2527 225.304 62.33C225.304 55.6433 223.77 50.884 220.702 48.052C217.713 45.1413 212.993 43.686 206.542 43.686H195.686C194.349 43.686 193.68 44.3547 193.68 45.692V81.8Z" fill="white"/>
<path d="M270.206 110.238C270.206 113.463 270.284 116.02 270.442 117.908C270.599 119.796 270.992 121.251 271.622 122.274C272.33 123.218 273.313 123.847 274.572 124.162C275.83 124.477 277.6 124.713 279.882 124.87V129H248.494V124.87C250.775 124.791 252.584 124.595 253.922 124.28C255.259 123.887 256.282 123.218 256.99 122.274C257.698 121.33 258.13 119.993 258.288 118.262C258.524 116.453 258.642 114.053 258.642 111.064V97.258C258.642 91.9087 258.563 87.7393 258.406 84.75C258.327 81.7607 257.934 79.558 257.226 78.142C256.596 76.726 255.574 75.9 254.158 75.664C252.742 75.3493 250.775 75.192 248.258 75.192V71.062L268.908 66.578L270.56 81.21H271.032C272.054 78.85 273.313 76.6867 274.808 74.72C276.381 72.7533 278.072 71.1013 279.882 69.764C281.691 68.348 283.579 67.2467 285.546 66.46C287.512 65.6733 289.518 65.28 291.564 65.28C294.081 65.28 296.048 65.9093 297.464 67.168C298.958 68.348 299.706 69.9607 299.706 72.006C299.706 73.894 299.116 75.3887 297.936 76.49C296.756 77.5127 295.064 78.024 292.862 78.024C291.603 78.024 290.541 77.8667 289.676 77.552C288.81 77.2373 288.024 76.9227 287.316 76.608C286.686 76.2147 286.057 75.8607 285.428 75.546C284.877 75.2313 284.248 75.074 283.54 75.074C281.416 75.074 279.292 76.4507 277.168 79.204C275.044 81.8787 273.392 85.3007 272.212 89.47C271.582 91.7513 271.071 94.3473 270.678 97.258C270.363 100.09 270.206 103.079 270.206 106.226V110.238Z" fill="white"/>
<path d="M360.573 118.026C353.886 126.129 345.587 130.18 335.675 130.18C331.033 130.18 326.825 129.433 323.049 127.938C319.273 126.365 316.008 124.201 313.255 121.448C310.58 118.616 308.495 115.273 307.001 111.418C305.506 107.485 304.759 103.158 304.759 98.438C304.759 93.6393 305.545 89.1947 307.119 85.104C308.692 81.0133 310.895 77.5127 313.727 74.602C316.637 71.6913 320.059 69.41 323.993 67.758C328.005 66.106 332.371 65.28 337.091 65.28C344.721 65.28 350.621 67.3647 354.791 71.534C358.96 75.6247 361.045 81.5247 361.045 89.234C361.045 90.3353 360.809 91.004 360.337 91.24C359.943 91.476 358.96 91.594 357.387 91.594H318.565C318.407 92.2233 318.289 93.01 318.211 93.954C318.132 94.8193 318.093 95.8027 318.093 96.904C318.093 100.995 318.565 104.731 319.509 108.114C320.531 111.418 321.947 114.25 323.757 116.61C325.645 118.97 327.847 120.819 330.365 122.156C332.961 123.415 335.832 124.044 338.979 124.044C342.283 124.044 345.351 123.336 348.183 121.92C351.015 120.425 353.925 118.026 356.915 114.722L360.573 118.026ZM341.103 86.166C342.676 86.166 343.935 86.1267 344.879 86.048C345.823 85.9693 346.531 85.812 347.003 85.576C347.475 85.34 347.789 85.0253 347.947 84.632C348.104 84.16 348.183 83.57 348.183 82.862C348.183 79.2433 347.003 76.372 344.643 74.248C342.361 72.0453 339.215 70.944 335.203 70.944C326.707 70.944 321.436 76.018 319.391 86.166H341.103Z" fill="white"/>
<path d="M376.767 129H374.171V108.704H377.121C380.189 119.796 385.774 125.342 393.877 125.342C397.024 125.342 399.502 124.595 401.311 123.1C403.199 121.527 404.143 119.167 404.143 116.02C404.143 114.84 403.946 113.857 403.553 113.07C403.238 112.205 402.57 111.339 401.547 110.474C400.603 109.53 399.226 108.468 397.417 107.288C395.686 106.108 393.366 104.613 390.455 102.804C387.78 101.152 385.46 99.618 383.493 98.202C381.526 96.786 379.874 95.37 378.537 93.954C377.2 92.4593 376.177 90.886 375.469 89.234C374.84 87.582 374.525 85.6547 374.525 83.452C374.525 80.7773 374.958 78.3387 375.823 76.136C376.767 73.8547 378.026 71.9273 379.599 70.354C381.172 68.7807 383.021 67.5613 385.145 66.696C387.269 65.752 389.59 65.28 392.107 65.28C394.231 65.28 396.434 65.634 398.715 66.342C400.996 66.9713 403.002 67.8367 404.733 68.938L407.093 66.46H409.335V83.452H406.267C404.536 78.6533 402.648 75.2313 400.603 73.186C398.558 71.1407 396.04 70.118 393.051 70.118C390.376 70.118 388.213 70.826 386.561 72.242C384.988 73.658 384.201 75.6247 384.201 78.142C384.201 79.4793 384.398 80.6593 384.791 81.682C385.263 82.626 385.971 83.57 386.915 84.514C387.859 85.458 389.039 86.4413 390.455 87.464C391.95 88.408 393.72 89.5093 395.765 90.768C399.148 92.892 402.019 94.78 404.379 96.432C406.818 98.084 408.784 99.736 410.279 101.388C411.774 102.961 412.875 104.613 413.583 106.344C414.291 108.075 414.645 110.041 414.645 112.244C414.645 117.829 412.836 122.235 409.217 125.46C405.598 128.607 400.839 130.18 394.939 130.18C388.803 130.18 383.532 128.41 379.127 124.87L376.767 129Z" fill="white"/>
<path d="M424.923 73.894V69.528C429.092 67.0893 432.357 64.6507 434.717 62.212C437.077 59.7733 438.886 56.8627 440.145 53.48H443.567V68.348H459.379V73.894H443.567V109.766C443.567 112.519 443.685 114.84 443.921 116.728C444.236 118.616 444.708 120.15 445.337 121.33C445.966 122.431 446.792 123.218 447.815 123.69C448.838 124.162 450.136 124.398 451.709 124.398C453.676 124.398 455.328 124.005 456.665 123.218C458.081 122.353 459.458 120.937 460.795 118.97L463.745 121.212C462.644 124.123 460.716 126.365 457.963 127.938C455.288 129.433 451.945 130.18 447.933 130.18C442.741 130.18 438.768 128.961 436.015 126.522C433.34 124.005 432.003 120.425 432.003 115.784V73.894H424.923Z" fill="white"/>
<path d="M503.149 65.28C507.633 65.28 511.881 66.106 515.893 67.758C519.905 69.3313 523.406 71.534 526.395 74.366C529.463 77.198 531.862 80.5807 533.593 84.514C535.402 88.3687 536.307 92.6167 536.307 97.258C536.307 102.057 535.402 106.462 533.593 110.474C531.862 114.486 529.463 117.947 526.395 120.858C523.406 123.769 519.905 126.05 515.893 127.702C511.881 129.354 507.633 130.18 503.149 130.18C498.744 130.18 494.535 129.393 490.523 127.82C486.589 126.168 483.128 123.887 480.139 120.976C477.149 118.065 474.79 114.604 473.059 110.592C471.328 106.501 470.463 102.057 470.463 97.258C470.463 92.6167 471.328 88.3293 473.059 84.396C474.79 80.4627 477.149 77.08 480.139 74.248C483.128 71.416 486.589 69.2133 490.523 67.64C494.535 66.0667 498.744 65.28 503.149 65.28ZM503.149 70.944C500.238 70.944 497.563 71.5733 495.125 72.832C492.765 74.0907 490.719 75.9 488.989 78.26C487.337 80.5413 486.039 83.334 485.095 86.638C484.229 89.8633 483.797 93.4427 483.797 97.376C483.797 101.467 484.229 105.164 485.095 108.468C486.039 111.772 487.337 114.604 488.989 116.964C490.719 119.245 492.765 121.015 495.125 122.274C497.485 123.533 500.159 124.162 503.149 124.162C506.138 124.162 508.852 123.533 511.291 122.274C513.729 121.015 515.814 119.206 517.545 116.846C519.276 114.486 520.613 111.654 521.557 108.35C522.501 105.046 522.973 101.388 522.973 97.376C522.973 93.4427 522.501 89.8633 521.557 86.638C520.613 83.4127 519.276 80.6593 517.545 78.378C515.814 76.018 513.729 74.2087 511.291 72.95C508.852 71.6127 506.138 70.944 503.149 70.944Z" fill="white"/>
<path fill-rule="evenodd" clip-rule="evenodd" d="M86.4235 0.297785C79.1276 1.44685 72.1619 4.01218 65.3545 8.05682C63.4986 9.159 51.9349 15.8549 39.6574 22.9358C15.2648 37.0042 0.310163 45.6701 0.0121804 45.9097C-0.0926846 45.9941 0.49134 46.2004 1.31001 46.3681C7.05578 47.5443 12.243 49.0251 16.0046 50.5622C25.4336 54.4168 36.1714 62.2451 43.2046 70.3927C47.0332 74.8269 52.8953 83.2704 52.8953 84.3492C52.8953 84.7143 52.2827 85.293 51.5341 85.6352C50.7855 85.9774 47.0301 88.2412 43.1895 90.6664C25.5214 101.822 15.1885 112.063 11.4601 122.114C9.7558 126.71 9.66287 135.053 11.2504 140.95C13.4188 149.001 18.6506 157.501 24.2645 162.092C27.3741 164.635 33.4288 167.912 33.9853 167.354C34.1675 167.171 34.0466 165.073 33.7169 162.692C33.3867 160.312 32.9849 154.496 32.824 149.769C32.0318 126.548 38.1586 110.007 52.6949 96.1185C60.9699 88.2131 69.263 82.5438 89.9245 70.6683C103.508 62.8613 107.39 60.2116 111.954 55.632C117.423 50.1445 121.981 42.0438 123.44 35.2187C124.282 31.2761 124.155 23.8577 123.189 20.5554C120.935 12.8604 116.139 7.26821 108.702 3.66788C106.132 2.42402 102.768 1.14682 101.227 0.830127C97.1716 -0.00328225 89.9754 -0.262162 86.4235 0.297785ZM77.7991 18.0041C94.1632 26.7965 99.8 54.2891 87.4742 65.1927C84.9284 67.4445 69.1691 76.325 67.7181 76.325C67.3666 76.325 66.8324 75.7833 66.5324 75.1218C66.2318 74.4597 63.1897 69.3619 59.7717 63.7926C49.4394 46.9557 47.517 42.3948 47.49 34.6545C47.4755 30.5557 47.666 29.3379 48.6015 27.5622C50.9423 23.1176 55.0445 19.6719 60.9714 17.1712C63.6979 16.0206 64.6604 15.8883 69.248 16.0341C74.0198 16.1857 74.7108 16.3451 77.7991 18.0041ZM71.4434 83.945C71.2627 84.2387 68.327 86.39 64.9199 88.7256C61.5124 91.0612 58.5865 93.3333 58.4178 93.775C58.2486 94.2167 58.6779 96.3898 59.3714 98.6041C61.9495 106.836 63.2556 114.93 63.2686 122.762C63.279 128.913 61.8503 138.394 60.1875 143.21C59.603 144.902 59.1249 146.364 59.1249 146.46C59.1249 146.707 64.1298 148.978 80.4093 156.117C88.2612 159.559 97.5542 163.642 101.06 165.188C104.567 166.735 107.528 168 107.64 168C107.811 168 90.7027 138.054 88.3593 134.25C87.9544 133.592 87.0651 132.842 86.384 132.582C82.4942 131.098 84.1642 125.288 88.4808 125.288C90.9815 125.288 93.0565 127.458 92.705 129.706C92.5005 131.015 94.0252 134.018 101.836 147.686C106.992 156.71 111.472 164.386 111.79 164.742C112.234 165.24 112.396 165.059 112.482 163.961C112.702 161.189 117.786 115.112 118.025 113.731C118.256 112.395 118.131 112.306 115.301 111.767C100.042 108.864 84.6299 99.276 73.8615 85.9884C72.7127 84.5705 71.6246 83.6512 71.4434 83.945Z" fill="white"/>
</svg>
